<svg xmlns="http://www.w3.org/2000/svg" id="Capa_1" viewBox="48.9 216.9 744.1 161.5"><defs><style>.cls-1{fill:#c5171a;}</style></defs><polygon class="cls-1" points="213.6 241 213.6 217.5 248.3 217.5 248.3 264.2 302.5 299.2 302.5 337.8 175.3 256.1 48.9 337.8 48.9 299.2 174.9 216.9 213.6 241"/><rect class="cls-1" x="180.9" y="338.5" width="89.6" height="39.9"/><rect class="cls-1" x="79.6" y="338.5" width="88.9" height="39.9"/><rect class="cls-1" x="135.2" y="293.3" width="79.8" height="35.3"/><path class="cls-1" d="M337,308.2v-47.4h20.5c4.2,0,7.9.7,11,2.1,3.1,1.4,5.4,3.4,7.1,5.9,1.7,2.6,2.5,5.6,2.5,9.1s-.8,6.6-2.5,9.2c-1.7,2.6-4,4.5-7.1,5.9-3.1,1.4-6.7,2.1-11,2.1h-14.5l5-4.9v18h-11ZM348,291.4l-5-5.2h13.9c3.3,0,5.9-.7,7.6-2.2,1.7-1.4,2.6-3.5,2.6-6.1s-.9-4.6-2.6-6.1c-1.7-1.4-4.2-2.1-7.6-2.1h-13.9l5-5.2v26.9Z"/><path class="cls-1" d="M386.5,308.2v-47.4h35.8v8.8h-24.9v29.8h25.8v8.8h-36.7ZM396.6,288.4v-8.6h22.8v8.6h-22.8Z"/><path class="cls-1" d="M432.6,308.2v-47.4h21.5c5.1,0,9.7,1,13.6,2.9s7,4.7,9.2,8.3c2.2,3.5,3.3,7.7,3.3,12.5s-1.1,8.9-3.3,12.5c-2.2,3.5-5.3,6.3-9.2,8.3-3.9,2-8.5,2.9-13.6,2.9h-21.5ZM443.7,299.3h10c3.2,0,5.9-.6,8.2-1.8,2.3-1.2,4.1-2.9,5.4-5.1,1.3-2.2,1.9-4.8,1.9-7.8s-.6-5.6-1.9-7.9c-1.3-2.2-3.1-3.9-5.4-5.1-2.3-1.2-5.1-1.8-8.2-1.8h-10v29.5Z"/><path class="cls-1" d="M489.2,308.2v-47.4h35.8v8.8h-24.9v29.8h25.8v8.8h-36.7ZM499.3,288.4v-8.6h22.8v8.6h-22.8Z"/><path class="cls-1" d="M535.3,308.2v-47.4h9.1l20.2,33.4h-4.8l19.8-33.4h9.1v47.4h-10.2v-31.6c-.1,0,1.9,0,1.9,0l-16,26.5h-4.9l-16.2-26.5h2.2v31.6h-10.2Z"/><path class="cls-1" d="M623.7,309c-3.7,0-7.2-.6-10.4-1.8-3.2-1.2-5.9-2.9-8.3-5.1-2.3-2.2-4.2-4.8-5.4-7.8-1.3-3-1.9-6.2-1.9-9.7s.6-6.8,1.9-9.8c1.3-3,3.1-5.5,5.4-7.8,2.3-2.2,5.1-3.9,8.2-5.1,3.1-1.2,6.6-1.8,10.3-1.8s7.2.6,10.3,1.8c3.1,1.2,5.9,2.9,8.2,5.1,2.3,2.2,4.2,4.8,5.4,7.8,1.3,3,1.9,6.3,1.9,9.8s-.6,6.8-1.9,9.8c-1.3,3-3.1,5.6-5.4,7.8-2.3,2.2-5.1,3.9-8.2,5.1-3.1,1.2-6.6,1.8-10.3,1.8ZM623.6,299.7c2.1,0,4.1-.4,5.9-1.1,1.8-.7,3.4-1.8,4.7-3.2,1.4-1.4,2.4-3,3.1-4.8s1.1-3.9,1.1-6.1-.4-4.3-1.1-6.1c-.7-1.8-1.8-3.4-3.1-4.8-1.4-1.4-2.9-2.4-4.7-3.2-1.8-.7-3.7-1.1-5.9-1.1s-4.1.4-5.9,1.1c-1.8.7-3.4,1.8-4.7,3.2-1.3,1.4-2.4,3-3.1,4.8-.7,1.8-1.1,3.9-1.1,6.1s.4,4.3,1.1,6.1,1.8,3.4,3.1,4.8c1.3,1.4,2.9,2.4,4.7,3.2,1.8.7,3.8,1.1,5.9,1.1Z"/><path class="cls-1" d="M658.5,308.2v-47.4h9.1l28,34.1h-4.4v-34.1h10.8v47.4h-9.1l-28-34.1h4.4v34.1h-10.8Z"/><path class="cls-1" d="M723.6,308.2v-38.5h-15.2v-8.9h41.3v8.9h-15.2v38.5h-11Z"/><path class="cls-1" d="M756.3,308.2v-47.4h35.8v8.8h-24.9v29.8h25.8v8.8h-36.7ZM766.4,288.4v-8.6h22.8v8.6h-22.8Z"/><path class="cls-1" d="M337.1,360.4v-31.3h4.8l13.7,22.8h-2.5l13.5-22.8h4.8v31.3c0,0-5.5,0-5.5,0v-22.7h1.1l-11.4,19.1h-2.6l-11.6-19.1h1.3v22.7h-5.5Z"/><path class="cls-1" d="M381.6,360.4l14.1-31.3h5.7l14.1,31.3h-6.1l-12.1-28.2h2.3l-12.1,28.2h-5.9ZM388.1,353.1l1.6-4.6h16.9l1.6,4.6h-20Z"/><path class="cls-1" d="M430.5,360.4v-26.4h-10.4v-4.9h26.6v4.9h-10.4v26.4h-5.8Z"/><path class="cls-1" d="M457.4,360.4v-31.3h22.8v4.9h-17v21.5h17.7v4.9h-23.5ZM462.7,346.9v-4.8h15.6v4.8h-15.6Z"/><path class="cls-1" d="M493.6,360.4v-31.3h12.8c4.2,0,7.4,1,9.8,3s3.6,4.7,3.6,8.2-.5,4.3-1.6,5.9c-1.1,1.6-2.6,2.9-4.6,3.8-2,.9-4.4,1.3-7.1,1.3h-9.6l2.5-2.6v11.7h-5.8ZM499.4,349.3l-2.5-2.8h9.3c2.6,0,4.5-.6,5.8-1.7,1.3-1.1,1.9-2.6,1.9-4.6s-.6-3.5-1.9-4.6c-1.3-1.1-3.2-1.6-5.8-1.6h-9.3l2.5-2.9v18.1ZM514,360.4l-7.9-11.4h6.2l8,11.4h-6.3Z"/><path class="cls-1" d="M532.5,360.4v-31.3h5.8v31.3h-5.8Z"/><path class="cls-1" d="M548.6,360.4l14.1-31.3h5.7l14.1,31.3h-6.1l-12.1-28.2h2.3l-12.1,28.2h-5.9ZM555.1,353.1l1.6-4.6h16.9l1.6,4.6h-20Z"/><path class="cls-1" d="M592.8,360.4v-31.3h5.8v26.4h16.4v4.9h-22.2Z"/><path class="cls-1" d="M625.8,360.4v-31.3h22.8v4.9h-17v21.5h17.7v4.9h-23.5ZM631.2,346.9v-4.8h15.6v4.8h-15.6Z"/><path class="cls-1" d="M671.7,360.8c-2.4,0-4.8-.4-7-1.1-2.2-.7-4-1.6-5.3-2.7l2-4.5c1.3,1,2.8,1.8,4.6,2.5,1.8.7,3.7,1,5.7,1s3-.2,4-.5c1-.4,1.8-.8,2.2-1.5.5-.6.7-1.3.7-2.1s-.3-1.7-1-2.3c-.7-.6-1.6-1-2.7-1.4-1.1-.3-2.3-.7-3.6-.9-1.3-.3-2.7-.6-4-1.1-1.3-.4-2.5-.9-3.6-1.6-1.1-.6-2-1.5-2.7-2.6-.7-1.1-1-2.4-1-4.1s.5-3.3,1.4-4.7c.9-1.4,2.3-2.5,4.2-3.4,1.9-.8,4.2-1.3,7.1-1.3s3.7.2,5.6.7c1.8.5,3.5,1.2,4.8,2.1l-1.8,4.5c-1.4-.8-2.8-1.5-4.3-1.9-1.5-.4-2.9-.6-4.3-.6s-2.9.2-3.9.6c-1,.4-1.8.9-2.2,1.5-.5.6-.7,1.3-.7,2.1s.3,1.7,1,2.3c.7.6,1.5,1,2.6,1.4,1.1.3,2.3.6,3.6.9,1.3.3,2.7.6,4,1.1,1.3.4,2.5.9,3.6,1.6,1.1.6,2,1.5,2.7,2.5.7,1.1,1,2.4,1,4s-.5,3.2-1.4,4.6c-.9,1.4-2.3,2.5-4.2,3.4-1.9.8-4.2,1.3-7.1,1.3Z"/></svg>